<?xml version="1.0" standalone="no"?><!DOCTYPE svg PUBLIC "-//W3C//DTD SVG 1.1//EN" "http://www.w3.org/Graphics/SVG/1.1/DTD/svg11.dtd"><svg t="1711861256097" class="icon" viewBox="0 0 1024 1024" version="1.1" xmlns="http://www.w3.org/2000/svg" p-id="4254" xmlns:xlink="http://www.w3.org/1999/xlink" width="200" height="200"><path d="M946.7904 120.832c-21.7088 0-36.2496 12.6976-36.2496 31.744v737.6896c0 31.744-36.2496 63.6928-72.4992 63.6928H200.2944c-43.4176 0-94.208-31.744-94.208-63.6928v-69.8368c0-31.744 43.4176-50.7904 87.04-50.7904h608.8704c21.7088 0 36.2496-12.6976 36.2496-31.744V114.4832C838.2464 44.6464 780.288 0 693.248 0H200.2944C120.6272 0 40.96 38.0928 40.96 114.4832v801.3824c7.168 57.344 72.4992 101.7856 137.6256 108.1344h659.456c79.6672 0 144.9984-57.344 144.9984-120.832V152.576c0-12.6976-14.5408-31.744-36.2496-31.744zM808.96 833.1264H214.6304c-21.7088 0-36.2496 12.6976-36.2496 31.744s14.5408 31.744 36.2496 31.744H808.96c21.7088 0 36.2496-12.6976 36.2496-31.744 0.2048-19.0464-14.336-31.744-36.2496-31.744z m0 0" p-id="4255"></path></svg>